<svg xmlns="http://www.w3.org/2000/svg" fill="currentColor" viewBox="0 0 1872 304"><style>@media (prefers-color-scheme:light){:root{color:#222}}@media (prefers-color-scheme:dark){:root{color:#fff}}</style><path d="M.052 299V4.455h110.454c22.628 0 41.613 4.218 56.954 12.656 15.436 8.437 27.086 20.039 34.948 34.804 7.958 14.67 11.937 31.354 11.937 50.05 0 18.889-3.979 35.668-11.937 50.338-7.958 14.669-19.703 26.223-35.236 34.66-15.533 8.342-34.661 12.513-57.385 12.513H36.582V155.61h66.014c13.232 0 24.066-2.301 32.504-6.903 8.437-4.602 14.67-10.93 18.697-18.984 4.122-8.054 6.184-17.307 6.184-27.758 0-10.45-2.062-19.655-6.184-27.613-4.027-7.959-10.308-14.143-18.841-18.553-8.438-4.507-19.32-6.76-32.647-6.76h-48.9V299H.053Zm282.909 4.027v-44.872h16.827c7.574 0 13.807-1.103 18.697-3.308 4.889-2.205 8.821-5.369 11.793-9.492 3.068-4.123 5.609-8.917 7.622-14.382l3.884-9.924L236.507 4.455h55.802l73.349 157.627L429.083 4.455h54.94L382.485 244.636c-4.698 10.355-10.116 19.991-16.252 28.908-6.136 8.821-14.142 15.964-24.018 21.429-9.78 5.369-22.532 8.054-38.256 8.054h-20.998Zm470.523-199.192h-53.789c-1.534-8.821-4.362-16.635-8.485-23.443-4.123-6.903-9.253-12.752-15.389-17.546-6.137-4.794-13.136-8.39-20.998-10.787-7.766-2.493-16.156-3.739-25.169-3.739-16.012 0-30.202 4.027-42.571 12.08-12.368 7.959-22.052 19.657-29.052 35.093-6.999 15.341-10.499 34.086-10.499 56.234 0 22.532 3.5 41.517 10.499 56.953 7.096 15.341 16.78 26.943 29.052 34.805 12.369 7.766 26.511 11.65 42.427 11.65 8.821 0 17.067-1.151 24.738-3.452 7.766-2.397 14.717-5.897 20.854-10.499 6.232-4.602 11.457-10.259 15.676-16.971 4.315-6.712 7.287-14.382 8.917-23.011l53.789.287c-2.013 13.999-6.376 27.135-13.088 39.407-6.615 12.273-15.293 23.108-26.031 32.504-10.739 9.3-23.299 16.587-37.681 21.861-14.382 5.177-30.347 7.766-47.893 7.766-25.887 0-48.995-5.993-69.321-17.978-20.327-11.985-36.339-29.291-48.037-51.919-11.697-22.628-17.546-49.762-17.546-81.403 0-31.736 5.897-58.87 17.69-81.402 11.794-22.628 27.854-39.935 48.18-51.92C580.084 6.42 603.095.428 628.791.428c16.396 0 31.641 2.3 45.735 6.903 14.095 4.602 26.655 11.362 37.682 20.279 11.026 8.82 20.087 19.655 27.182 32.503 7.191 12.752 11.889 27.326 14.094 43.722ZM832.563 299H775.61L879.305 4.455h65.87L1049.01 299h-56.95L913.39 64.86h-2.301L832.563 299Zm1.869-115.488h155.327v42.858H834.432v-42.858ZM1260.23 299l-96.94-128.72h-26.17V299h-53.36V4.455h53.36v121.097h13.37l104.7-121.097h65.73l-116.35 134.328L1325.95 299h-65.72Zm345.29-147.273c0 31.737-5.95 58.919-17.84 81.547-11.79 22.532-27.9 39.79-48.32 51.775-20.33 11.985-43.38 17.978-69.18 17.978-25.79 0-48.9-5.993-69.32-17.978-20.33-12.081-36.43-29.387-48.32-51.919-11.8-22.628-17.69-49.762-17.69-81.403 0-31.736 5.89-58.87 17.69-81.402 11.89-22.628 27.99-39.935 48.32-51.92C1421.28 6.42 1444.39.428 1470.18.428c25.8 0 48.85 5.992 69.18 17.977 20.42 11.985 36.53 29.292 48.32 51.92 11.89 22.531 17.84 49.666 17.84 81.402Zm-53.65 0c0-22.34-3.5-41.18-10.5-56.521-6.9-15.437-16.49-27.087-28.76-34.949-12.27-7.958-26.41-11.937-42.43-11.937-16.01 0-30.15 3.979-42.42 11.937-12.28 7.862-21.91 19.512-28.91 34.949-6.91 15.341-10.36 34.181-10.36 56.521 0 22.34 3.45 41.229 10.36 56.666 7 15.341 16.63 26.99 28.91 34.948 12.27 7.862 26.41 11.794 42.42 11.794 16.02 0 30.16-3.932 42.43-11.794 12.27-7.958 21.86-19.607 28.76-34.948 7-15.437 10.5-34.326 10.5-56.666ZM1651.91 299V4.455h112.76c21.29 0 38.98 3.355 53.07 10.067 14.19 6.616 24.78 15.676 31.78 27.182 7.1 11.506 10.65 24.546 10.65 39.12 0 11.985-2.3 22.244-6.91 30.777-4.6 8.438-10.78 15.293-18.55 20.567-7.77 5.273-16.44 9.06-26.03 11.361v2.877c10.45.575 20.47 3.787 30.06 9.636 9.68 5.753 17.59 13.903 23.73 24.449 6.13 10.547 9.2 23.299 9.2 38.257 0 15.245-3.69 28.956-11.07 41.133-7.38 12.081-18.51 21.621-33.37 28.62-14.86 6.999-33.56 10.499-56.09 10.499h-119.23Zm53.36-44.585h57.39c19.36 0 33.31-3.691 41.85-11.074 8.63-7.478 12.94-17.066 12.94-28.764 0-8.725-2.16-16.587-6.47-23.587-4.31-7.095-10.45-12.656-18.41-16.683-7.96-4.123-17.45-6.184-28.48-6.184h-58.82v86.292Zm0-124.692h52.78c9.21 0 17.5-1.678 24.88-5.034 7.39-3.452 13.19-8.294 17.41-14.526 4.31-6.328 6.47-13.807 6.47-22.436 0-11.41-4.03-20.806-12.08-28.189-7.96-7.383-19.8-11.074-35.53-11.074h-53.93v81.259Z"/></svg>
