<svg xmlns="http://www.w3.org/2000/svg" fill="none" viewBox="0 0 136 136"><path fill="#fd0" fill-rule="evenodd" d="M8.286 0 0 136l136.654-8.234V8.234L8.286 0Z" clip-rule="evenodd"/><path fill="#000" d="M42.26 91.297H27.121V43.243h41.524v11.695H42.26v9.517h21.585v10.991H42.26v15.85ZM75.748 85.466c-4.52-4.312-6.78-10.377-6.78-18.197 0-7.84 2.26-13.918 6.78-18.23 4.52-4.31 10.72-6.467 18.597-6.467 7.385 0 13.349 1.832 17.892 5.496 4.52 3.642 6.781 8.445 6.781 14.41h-15.677c0-.604-.212-1.43-.638-2.48a7.292 7.292 0 0 0-1.376-2.178c-.649-.67-1.589-1.24-2.82-1.71-1.23-.469-2.618-.703-4.162-.703-6.378 0-9.567 3.954-9.567 11.862 0 7.931 3.189 11.897 9.567 11.897 1.589 0 2.987-.235 4.196-.704 1.23-.47 2.16-1.072 2.786-1.81 1.186-1.34 1.835-2.636 1.947-3.887l.067-.67h15.677c0 5.943-2.261 10.735-6.781 14.376-4.543 3.664-10.507 5.496-17.892 5.496-7.855 0-14.054-2.167-18.597-6.501Z"/></svg>