<svg xmlns="http://www.w3.org/2000/svg" fill="none" viewBox="0 0 162 162"><g fill="#3316e9" clip-path="url(#a)"><path d="M162 146.56h-15.44v7.745H162v-7.745ZM146.559 154.305h-7.695V162h7.695v-7.695ZM138.864 100.289h-7.745v7.695h7.745v7.746h7.695V77.153h-7.695v23.136ZM138.864 146.56h-15.44v7.745h15.44v-7.745ZM138.864 69.457h-7.745v7.696h7.745v-7.696ZM123.424 138.865h-15.441v7.695h15.441v-7.695ZM115.728 107.984h7.695v-7.695h7.695v-7.695h-7.695V69.458h7.695v-7.746h-7.695V38.577h-7.695v69.407ZM107.982 154.305h-7.695V162h7.695v-7.695ZM107.982 92.594h-7.695v7.695h7.695v-7.695ZM107.982 77.153h-7.695v7.695h7.695v-7.695ZM100.288 138.865h-7.745v15.44h7.745v-15.44ZM100.288 123.424H69.406v7.745h30.882v-7.745ZM100.288 7.695h-7.745v7.745h7.745V7.696ZM92.543 0h-15.39v7.695h15.39V0ZM100.288 46.272h-7.746v-7.695h-15.39v7.695h7.695v7.745h-7.695v-7.745h-7.746v15.44h7.746v7.746h15.39v-7.746h7.746v-15.44ZM77.152 138.864h-7.746v15.441h7.746v-15.441ZM53.965 115.729h7.746v7.695h7.695v-7.695h30.881v7.695h7.695v-7.695h7.746v-7.746H53.965v7.746ZM77.152 7.695h-7.746v7.746h7.746V7.695ZM69.407 154.305h-7.695V162h7.695v-7.695ZM61.712 138.864h-15.44v7.695h15.44v-7.695Z"/><path d="M69.406 23.136V15.44h-7.695v7.695h-7.746v15.44h7.746v-7.695h46.271v7.696h7.746V23.136h-7.746V15.44h-7.695v7.695H69.406ZM53.966 38.576h-7.695v23.136h-7.695v7.745h7.695v23.136h-7.695v7.695h7.695v7.695h7.695V38.576ZM46.272 146.56h-15.44v7.745h15.44v-7.745Z"/><path d="M38.577 69.458H30.83v7.695h7.746v-7.695ZM30.83 154.305h-7.694V162h7.695v-7.695ZM30.83 77.153h-7.694v38.577h7.695v-7.746h7.745v-7.695h-7.745V77.153ZM23.136 146.56H7.696v7.745h15.44v-7.745ZM7.695 154.305H0V162h7.695v-7.695Z"/></g><defs><clipPath id="a"><path fill="#fff" d="M0 0h162v162H0z"/></clipPath></defs></svg>