<svg xmlns="http://www.w3.org/2000/svg" fill="none" viewBox="0 0 162 162"><path fill="#3316e9" d="M162 81.025h-7.695v38.577H162V81.025ZM154.305 119.602h-7.745v15.39h7.745v-15.39ZM154.305 65.585h-7.745v15.44h7.745v-15.44ZM146.559 134.992h-7.695v15.44h7.695v-15.44ZM146.559 57.84h-7.695v7.745h7.695v-7.746ZM138.864 150.433h-7.745v7.695h7.745v-7.695ZM138.864 104.161h-7.745v15.441h7.745v-15.441ZM138.864 81.025h-7.745v15.39h7.745v-15.39ZM138.864 50.145h-7.745v7.694h7.745v-7.694ZM131.119 119.602h-7.695v7.695h7.695v-7.695ZM131.119 57.84h-7.695v23.186h7.695V57.839ZM131.119 27.009h-7.695v7.695h7.695v-7.695ZM123.424 127.297h-7.695v7.695h7.695v-7.695ZM131.119 96.415h-15.39v7.746h15.39v-7.746ZM123.424 34.704h-7.695v7.745h7.695v-7.745ZM123.424 19.314h-7.695v7.695h7.695v-7.695ZM115.729 104.161h-7.746v7.695h7.746v-7.695ZM115.729 42.45h-7.746v7.694h7.746V42.45ZM115.729 11.568h-7.746v7.746h7.746v-7.746ZM107.983 150.433h-7.695v7.695h7.695v-7.695ZM107.983 111.856h-7.695v7.746h7.695v-7.746ZM107.983 50.145h-7.695v7.694h7.695v-7.694ZM107.983 3.873h-7.695v7.695h7.695V3.873ZM100.288 119.602h-7.695v30.83h7.695v-30.83ZM92.593 3.873h-7.745v15.44h7.745V3.874ZM84.847 19.314h-7.695v23.135h7.695V19.314ZM77.152 42.45h-7.745v15.39h7.745V42.45ZM69.407 119.602h-7.695v30.83h7.695v-30.83ZM61.712 150.433h-7.695v7.695h7.695v-7.695ZM61.712 111.856h-7.695v7.746h7.695v-7.746ZM61.712 50.145h-7.695v7.694h7.695v-7.694ZM61.712 3.873h-7.695v7.695h7.695V3.873ZM54.017 104.161h-7.745v7.695h7.745v-7.695ZM54.017 42.45h-7.745v7.694h7.745V42.45ZM54.017 11.568h-7.745v7.746h7.745v-7.746ZM46.271 127.297h-7.695v7.695h7.695v-7.695ZM46.271 96.415h-15.39v7.746h15.39v-7.746ZM46.271 34.704h-7.695v7.745h7.695v-7.745ZM46.271 19.314h-7.695v7.695h7.695v-7.695ZM38.576 119.602h-7.695v7.695h7.695v-7.695ZM38.576 57.84h-7.695v23.186h7.695V57.839ZM38.576 27.009h-7.695v7.695h7.695v-7.695ZM30.881 150.433h-7.745v7.695h7.745v-7.695ZM30.881 104.161h-7.745v15.441h7.745v-15.441ZM30.881 81.025h-7.745v15.39h7.745v-15.39ZM30.881 50.145h-7.745v7.694h7.745v-7.694ZM23.135 134.992H15.44v15.44h7.695v-15.44ZM23.135 57.84H15.44v7.745h7.695v-7.746Z"/><path fill="#3316e9" d="M15.44 119.602H7.695v15.39h7.745v-15.39ZM15.44 65.585H7.695v15.44h7.745v-15.44ZM7.695 81.025H0v38.577h7.695V81.025Z"/></svg>