<svg xmlns="http://www.w3.org/2000/svg" fill="none" viewBox="0 0 48 48"><path fill="#3316e9" d="M48 12h-2.395v19.197H48V12ZM45.605 31.197h-2.394v2.394h2.394v-2.394ZM45.605 9.606h-2.394V12h2.394V9.606ZM43.21 33.59H40.8V36h2.41v-2.41ZM43.21 7.197H40.8v2.41h2.41v-2.41ZM40.8 36h-2.394v2.394H40.8V36ZM40.8 4.803h-2.394v2.394H40.8V4.803ZM38.406 38.394h-2.41v2.393h2.41v-2.393ZM38.406 19.197h-4.804V24h4.804v-4.803ZM38.406 2.394h-4.804v2.41h4.804v-2.41ZM35.996 40.787h-4.789v2.41h4.789v-2.41ZM31.207 43.197h-4.805v2.393h4.805v-2.393ZM9.593 45.59v-2.393H7.2v2.393H4.804V48h21.598v-2.41H9.593ZM26.402 19.197h-4.805V24h4.805v-4.803ZM33.602 0H16.793v2.394h16.809V0ZM16.793 2.394h-4.79v2.41h4.79v-2.41ZM12.004 40.787h2.394v-2.393H9.593v4.803h2.41v-2.41ZM14.398 19.197H9.593V24h4.805v-4.803Z"/><path fill="#3316e9" d="M12.004 4.803H7.199v2.394h4.805V4.803ZM9.593 36H7.199v2.394h2.394V36ZM7.198 33.59H4.804V36h2.394v-2.41ZM7.198 7.197H4.804v2.41h2.394v-2.41ZM4.804 31.197h-2.41v2.394h2.41v-2.394ZM4.804 9.606h-2.41V12h2.41V9.606ZM2.394 12H0v19.197h2.394V12Z"/></svg>