<svg xmlns="http://www.w3.org/2000/svg" fill="none" viewBox="0 0 163 163"><path fill="#3316e9" d="M162.448 100.959h-7.695v54.015h7.695v-54.015ZM154.753 154.974H8.195v7.695h146.558v-7.695ZM131.615 124.103h-7.745v7.746h15.44v-15.44h-7.695v7.694ZM139.311 139.538H123.87v7.745h15.441v-7.745ZM123.872 108.709h-7.695v7.695h7.695v-7.695ZM123.871 54.691h-7.695v7.695h7.695v-7.695ZM116.174 124.09h-7.746v7.745h7.746v-7.745ZM116.175 62.39h-7.745v7.746h7.745v-7.745ZM116.174 46.995h-7.745v7.694h7.745v-7.694ZM116.172 139.539H46.715v7.745h69.457v-7.745ZM108.43 108.71h-7.695v7.695h7.695v-7.695ZM108.429 39.261H31.328v7.746h77.101V39.26ZM100.734 124.089H93.04v7.745h7.694v-7.745ZM100.734.677H93.04v15.44h7.694V.677ZM93.042 108.709h-7.745v7.695h7.745v-7.695ZM85.292 124.09h-7.695v7.745h7.695v-7.745ZM77.597 108.709h-7.695v7.695h7.695v-7.695ZM108.429 70.127h-46.27v7.695h46.27v-7.695ZM69.904 124.09h-7.746v7.745h7.746v-7.745ZM62.16 108.71h-7.695v7.695h7.695v-7.695ZM54.462 124.089h-7.745v7.745h7.745v-7.745ZM46.719 108.709h-7.695v7.695h7.695v-7.695ZM93.039 16.113H31.328v7.745h61.71v-7.745ZM39.023 124.09h-7.695v7.745h7.695v-7.745ZM39.024 139.538h-15.44v7.745h15.44v-7.745ZM31.331 108.71h-7.746v7.695h7.746v-7.695ZM31.33 23.865h-7.745v15.39h7.745v-15.39ZM23.585 124.089H15.89v7.745h7.695v-7.745ZM154.753 100.961v-7.695H62.161v-15.44h-7.695v15.44H8.195v7.695h146.558ZM8.195 100.959H.449v54.016h7.746v-54.016Z"/></svg>