<svg xmlns="http://www.w3.org/2000/svg" fill="none" viewBox="0 0 162 162"><path fill="#3316e9" d="M154.273 77.16h-7.695v46.271h7.695V77.16Z"/><path fill="#3316e9" d="M146.585 123.419h-7.695v7.746h7.695v-7.746ZM146.585 69.457h-7.695v7.695h7.695v-7.695ZM138.893 84.855h-7.746v30.881h7.746V84.854Z"/><path fill="#3316e9" d="M138.89 138.868v-7.695h-15.441v-7.745h7.695v-7.695h-7.695V84.852h7.695v-7.695h-7.695v-7.695h15.441v-7.746h-15.441v-7.695h-7.695v84.847h23.136ZM115.75 138.87h-15.441v7.695h15.441v-7.695ZM100.309 146.569h-15.44v7.745h15.44v-7.745ZM100.32 23.143v-7.695h-7.745V7.703H84.88v7.745h-7.695v7.695h23.135ZM84.88 107.988h-7.695v7.746h7.695v-7.746ZM84.88 92.59h-7.695v7.696h7.695v-7.695Z"/><path fill="#3316e9" d="M84.87 154.305H46.294V162H84.87v-7.695ZM77.17 115.74H54.036v7.695h23.136v-7.695ZM54.035 61.715h-15.44v7.745H92.56v-7.745H108V54.02h7.746v-7.746h-7.746V23.14h-7.695v7.745H77.171V23.14h-7.746v15.44h-15.39v23.136ZM92.56 38.579h7.745v15.44h-7.745V38.58Zm-15.39 0h7.694v23.136h-7.694V38.579ZM54.04 107.988h-7.746v7.746h7.746v-7.746ZM54.04 92.59h-7.746v7.696h7.746v-7.695Z"/><path fill="#3316e9" d="M54.04 23.139h-7.746v15.44h7.746V23.14ZM46.298 146.569h-15.44v7.745h15.44v-7.745ZM46.294 54.015v-7.746h-15.44v7.746h-7.695v7.695h15.44v-7.695h7.695ZM46.29 7.703h-7.696v15.44h7.695V7.703ZM38.6.004H23.158V7.7h15.44V.004ZM30.86 138.87H15.47v7.695h15.39v-7.695ZM23.165 7.703H15.47v7.745h7.695V7.703Z"/><path fill="#3316e9" d="M15.464 54.026h7.695v-15.44h7.695V30.89h-15.39v15.39H7.718v92.593h7.746V54.026ZM15.464 15.44H7.718v15.441h7.746v-15.44Z"/></svg>