<svg xmlns="http://www.w3.org/2000/svg" viewBox="0 0 24 24" fill="currentColor"><style>@media (prefers-color-scheme:light){:root{color:#fff}}@media (prefers-color-scheme:dark){:root{color:#222}}</style><g clip-path="url(#a)"><path fill="#fff" d="M19.688 23.063H7.5v-4.78h-.75v-2.287H5.625v-1.145h-.938v-1.136H3.375v-1.152h-.938V9.142H3V8.25h2.137v1.313h1.147v1.124h1.779V2.29h3.75V1.143h3.374v2.285h3.188v1.447h1.313v.84h2.25v9.14h-1.313v3.428h-.938v4.78Z"/><path fill="#3316E9" d="M22.286 5.715H21.14v9.143h1.147V5.715ZM21.139 14.857h-1.14v3.428h1.14v-3.428ZM18.859 20.572H8.569v-2.287H7.425v2.287H6.281V24H21.14v-3.428h-1.14v-2.287h-1.14v2.287Zm0 2.288h-2.284v-1.148h2.288l-.004 1.148ZM17.71 10.283h1.148V5.715h2.28v-1.14h-2.28V3.427h-1.147v6.856Z"/><path fill="#3316E9" d="M14.284 10.282h1.14V3.427h2.288v-1.14h-2.288V1.14h-1.14v9.142ZM14.284 0h-2.288v1.14h2.288V0ZM10.857 10.282h1.14V1.14H8.569v1.147h2.288v7.995ZM7.429 15.998H6.28v2.287H7.43v-2.287ZM8.569 11.43V2.288h-1.14v7.995H6.28v1.147H8.57ZM6.282 14.857h-1.14v1.14h1.14v-1.14Z"/><path fill="#3316E9" d="M6.282 9.143h-1.14v1.14h1.14v-1.14ZM5.141 13.717h-1.14v1.14h1.14v-1.14ZM5.141 8.002H2.854v1.14H5.14v-1.14ZM4.001 12.57H2.854v1.148H4V12.57ZM2.854 9.143h-1.14v3.427h1.14V9.143Z"/></g><defs><clipPath id="a"><path fill="#fff" d="M0 0h24v24H0z"/></clipPath></defs></svg>
