<svg viewBox="0 0 64 64" fill="none" xmlns="http://www.w3.org/2000/svg"><g clip-path="url(#clip0_158_95)"><path d="M64.0004 36.5801H60.9404V57.9001H64.0004V36.5801Z" fill="#3316E9"/><path d="M60.9404 57.8999H57.9004V60.9599H60.9404V57.8999Z" fill="#3316E9"/><path d="M60.9404 33.52H57.9004V36.58H60.9404V33.52Z" fill="#3316E9"/><path d="M60.9404 15.24H57.9004V24.38H60.9404V15.24Z" fill="#3316E9"/><path d="M57.8998 12.1799H54.8398V15.2399H57.8998V12.1799Z" fill="#3316E9"/><path d="M57.8996 60.96H36.5596V64H57.8996V60.96Z" fill="#3316E9"/><path d="M57.8996 30.48H36.5596V33.52H57.8996V30.48Z" fill="#3316E9"/><path d="M42.6596 3.04004V6.10004H39.5996V9.14004H36.5596V12.18H39.5996V15.24H42.6596V18.28H45.6996V12.18H54.8396V9.14004H45.6996V3.04004H42.6596Z" fill="#3316E9"/><path d="M36.5595 57.8999H33.5195V60.9599H36.5595V57.8999Z" fill="#3316E9"/><path d="M36.5595 33.52H33.5195V36.58H36.5595V33.52Z" fill="#3316E9"/><path d="M33.52 36.5801H30.46V57.9001H33.52V36.5801Z" fill="#3316E9"/><path d="M33.52 6.1001H30.46V27.4201H33.52V6.1001Z" fill="#3316E9"/><path d="M30.4599 27.4199H27.4199V30.4799H30.4599V27.4199Z" fill="#3316E9"/><path d="M30.4599 3.04004H27.4199V6.10004H30.4599V3.04004Z" fill="#3316E9"/><path d="M21.3196 60.96V57.9H24.3796V54.86H27.4196V51.8H24.3796V48.76H21.3196V45.72H18.2796V51.8H9.13965V54.86H18.2796V60.96H21.3196Z" fill="#3316E9"/><path d="M27.4201 30.48H6.08008V33.52H27.4201V30.48Z" fill="#3316E9"/><path d="M27.4201 0H6.08008V3.04H27.4201V0Z" fill="#3316E9"/><path d="M9.14008 48.76H6.08008V51.8H9.14008V48.76Z" fill="#3316E9"/><path d="M6.08004 39.6201H3.04004V48.7601H6.08004V39.6201Z" fill="#3316E9"/><path d="M6.08004 27.4199H3.04004V30.4799H6.08004V27.4199Z" fill="#3316E9"/><path d="M6.08004 3.04004H3.04004V6.10004H6.08004V3.04004Z" fill="#3316E9"/><path d="M3.04 6.1001H0V27.4201H3.04V6.1001Z" fill="#3316E9"/><path d="M24.9901 18H22V20.9901H24.9901V18Z" fill="#3316E9"/><path d="M24.9901 12H22V15.0098H24.9901V12Z" fill="#3316E9"/><path d="M22.0008 20.9902H13.0107V24H22.0008V20.9902Z" fill="#3316E9"/><path d="M13.0098 18H10V20.9901H13.0098V18Z" fill="#3316E9"/><path d="M13.0098 12H10V15.0098H13.0098V12Z" fill="#3316E9"/><path d="M54.9901 48H52V50.9901H54.9901V48Z" fill="#3316E9"/><path d="M54.9901 42H52V45.0098H54.9901V42Z" fill="#3316E9"/><path d="M52.0008 50.9902H43.0107V54H52.0008V50.9902Z" fill="#3316E9"/><path d="M43.0098 48H40V50.9901H43.0098V48Z" fill="#3316E9"/><path d="M43.0098 42H40V45.0098H43.0098V42Z" fill="#3316E9"/></g><defs><clipPath id="clip0_158_95"><rect width="64" height="64" fill="white"/></clipPath></defs></svg>