<svg xmlns="http://www.w3.org/2000/svg" fill="none" viewBox="0 0 67 67"><path fill="#3316e9" d="M63.603 27.448v12.695h3.164V27.448h-3.164ZM60.42 46.469h3.183v-6.326H60.42v6.326ZM60.42 27.448h3.183v-6.347H60.42v6.347ZM57.256 52.816h3.163V46.47h-3.163v6.347ZM57.256 21.1h3.163v-6.326h-3.163v6.327ZM57.256 52.816h-3.163v3.163h3.163v-3.163ZM57.256 11.59h-3.163v3.184h3.163v-3.183ZM47.746 55.98v3.183h6.347V55.98h-6.347ZM54.093 11.59V8.428h-6.347v3.164h6.347ZM44.562 24.285v6.326h6.347v-6.326h-6.347ZM41.398 59.163v3.164h6.348v-3.164h-6.348ZM22.378 36.959v6.347h3.163v3.163h3.184v3.184h12.673v-3.184h3.164v-3.163h3.184v-6.347H22.378ZM47.746 8.427V5.243h-6.348v3.184h6.348ZM28.725 62.327v3.184h12.673v-3.184H28.725ZM41.398 5.243V2.08H28.725v3.163h12.673ZM22.378 59.163v3.164h6.347v-3.164h-6.347ZM28.725 8.427V5.243h-6.347v3.184h6.347ZM25.54 30.611v-6.326h-6.346v6.326h6.347ZM22.378 55.98h-3.184v3.183h3.184V55.98ZM22.378 11.59V8.428H16.03v3.164h6.348ZM12.867 59.163v3.164h6.327v-3.164h-6.327ZM16.03 11.59h-3.163v3.184h3.163v-3.183ZM12.867 46.469H9.683v6.347h3.184V46.47ZM12.867 14.774H9.683v6.327h3.184v-6.326ZM6.52 62.327v-3.164H3.336v3.164H.173v3.184h12.694v-3.184H6.52Z"/><path fill="#3316e9" d="M9.683 52.816H6.52v6.347h3.163v-6.347ZM9.683 40.143H6.52v6.326h3.163v-6.326ZM9.683 21.1H6.52v6.348h3.163v-6.347ZM6.52 27.448H3.336v12.695H6.52V27.448Z"/></svg>