<svg xmlns="http://www.w3.org/2000/svg" viewBox="0 0 128 128"><style>@media (prefers-color-scheme:dark){circle{fill:#fff}path{fill:#000}}</style><circle cx="64" cy="64" r="64" style="fill:#000"/><path fill-rule="evenodd" d="M56.02 46.47A8.1 8.1 0 0 1 64 38.25a8.1 8.1 0 0 1 7.98 8.22V73H56.02V46.47zM38 73V46.47C38 31.92 49.57 20 64 20s26 11.92 26 26.47V73h3.07a7.9 7.9 0 0 1 7.93 7.86v17.28a7.9 7.9 0 0 1-7.93 7.86 7.9 7.9 0 0 1-7.93-7.86v-9.43H42.86v9.43a7.9 7.9 0 0 1-7.93 7.86A7.9 7.9 0 0 1 27 98.14V80.86A7.9 7.9 0 0 1 34.93 73H38z" clip-rule="evenodd" style="fill:#fff"/></svg>