<svg xmlns="http://www.w3.org/2000/svg" fill="none" viewBox="0 0 206 308"><path fill="#0ACF83" d="M.5 256.5c0-28.305 22.945-51.25 51.25-51.25H103v51.25c0 28.305-22.945 51.25-51.25 51.25S.5 284.805.5 256.5Z"/><path fill="#1abcfe" d="M103 154c0-28.304 22.945-51.25 51.25-51.25 28.304 0 51.25 22.945 51.25 51.25s-22.946 51.25-51.25 51.25c-28.305 0-51.25-22.946-51.25-51.25Z"/><path fill="#a259ff" d="M.5 154c0 28.305 22.945 51.25 51.25 51.25H103v-102.5H51.75C23.445 102.75.5 125.695.5 154Z"/><path fill="#ff7262" d="M103 .25v102.5h51.25c28.305 0 51.25-22.945 51.25-51.25S182.555.25 154.25.25H103Z"/><path fill="#F24E1E" d="M.5 51.5c0 28.305 22.945 51.25 51.25 51.25H103V.25H51.75C23.445.25.5 23.195.5 51.5Z"/></svg>