<svg xmlns="http://www.w3.org/2000/svg" fill="none" aria-hidden="true" class="mb-[100px] overflow-visible" style="overflow:visible" viewBox="0 0 171 96"><path fill="#fff" fill-opacity=".6" fill-rule="evenodd" d="M86 0C64.75 0 51.469 10.625 46.156 31.875c7.969-10.625 17.266-14.61 27.89-11.953 6.063 1.515 10.396 5.913 15.192 10.781 7.813 7.93 16.855 17.11 36.606 17.11 21.25 0 34.531-10.626 39.844-31.876-7.969 10.626-17.266 14.61-27.891 11.954-6.062-1.516-10.395-5.914-15.191-10.782C114.793 9.179 105.75 0 86 0ZM46.156 47.812c-21.25 0-34.531 10.625-39.843 31.875 7.968-10.625 17.265-14.609 27.89-11.953 6.062 1.516 10.395 5.914 15.191 10.782C57.207 86.446 66.25 95.625 86 95.625c21.25 0 34.531-10.625 39.844-31.875-7.969 10.625-17.266 14.61-27.89 11.953-6.063-1.516-10.396-5.913-15.192-10.782-7.813-7.93-16.855-17.109-36.606-17.109Z" clip-rule="evenodd" style="mix-blend-mode:screen"/><g filter="url(#a)"><path fill="#60e7fb" fill-rule="evenodd" d="M86 0C64.75 0 51.469 10.625 46.156 31.875c7.969-10.625 17.266-14.61 27.89-11.953 6.063 1.515 10.396 5.913 15.192 10.781 7.813 7.93 16.855 17.11 36.606 17.11 21.25 0 34.531-10.626 39.844-31.876-7.969 10.626-17.266 14.61-27.891 11.954-6.062-1.516-10.395-5.914-15.191-10.782C114.793 9.179 105.75 0 86 0ZM46.156 47.812c-21.25 0-34.531 10.625-39.843 31.875 7.968-10.625 17.265-14.609 27.89-11.953 6.062 1.516 10.395 5.914 15.191 10.782C57.207 86.446 66.25 95.625 86 95.625c21.25 0 34.531-10.625 39.844-31.875-7.969 10.625-17.266 14.61-27.89 11.953-6.063-1.516-10.396-5.913-15.192-10.782-7.813-7.93-16.855-17.109-36.606-17.109Z" clip-rule="evenodd"/></g><g filter="url(#b)"><path fill="#fff" fill-rule="evenodd" d="M86 0C64.75 0 51.469 10.625 46.156 31.875c7.969-10.625 17.266-14.61 27.89-11.953 6.063 1.515 10.396 5.913 15.192 10.781 7.813 7.93 16.855 17.11 36.606 17.11 21.25 0 34.531-10.626 39.844-31.876-7.969 10.626-17.266 14.61-27.891 11.954-6.062-1.516-10.395-5.914-15.191-10.782C114.793 9.179 105.75 0 86 0ZM46.156 47.812c-21.25 0-34.531 10.625-39.843 31.875 7.968-10.625 17.265-14.609 27.89-11.953 6.062 1.516 10.395 5.914 15.191 10.782C57.207 86.446 66.25 95.625 86 95.625c21.25 0 34.531-10.625 39.844-31.875-7.969 10.625-17.266 14.61-27.89 11.953-6.063-1.516-10.396-5.913-15.192-10.782-7.813-7.93-16.855-17.109-36.606-17.109Z" clip-rule="evenodd"/></g></svg>