<svg xmlns="http://www.w3.org/2000/svg" fill="currentColor" viewBox="0 0 64 64"><g fill="#3316E9" clip-path="url(#a)"><path d="M64 30.48h-3.04v21.34H64V30.48ZM60.96 51.82h-3.04v3.04h3.04v-3.04ZM60.96 27.44h-3.04v3.04h3.04v-3.04ZM54.86 60.96h-3.04V64h6.1v-9.14h-3.06v6.1ZM51.82 24.38h-12.2v-3.04h-3.04v3.04h-6.1v3.06h27.44v-3.06h-3.06v-9.14h-3.04v9.14ZM51.82 57.92h-3.06v3.04h3.06v-3.04ZM51.82 30.48h-6.1v3.06h-3.04v-3.06h-6.1v3.06h-3.06v6.08h3.06v3.06h3.04v3.04h3.06v3.06h3.04v-3.06h3.04v-3.04h3.06v-3.06h3.04v-6.08h-3.04v-3.06ZM51.82 12.2h-3.06v3.04h3.06V12.2ZM48.76 54.86h-3.04v3.06h3.04v-3.06ZM48.76 9.16h-3.04v3.04h3.04V9.16ZM45.72 51.82H30.48v3.04h15.24v-3.04ZM45.72 6.1h-6.1v3.06h6.1V6.1ZM39.62 3.06h-6.1V6.1h6.1V3.06Z"/><path d="M39.62 18.3v3.04h3.06v-6.1h-9.16V12.2h-3.04v6.1h9.14ZM30.48 48.78h-3.04v3.04h3.04v-3.04ZM30.48 27.44h-3.04v3.04h3.04v-3.04ZM30.48 9.16h-3.04v3.04h3.04V9.16ZM27.44 30.48h-6.1v3.06h3.04v12.18h-9.14v3.06h12.2v-18.3ZM27.44 6.1h-3.06v3.06h3.06V6.1ZM33.52 0H21.34v3.06h12.18V0ZM24.38 9.16h-3.04v3.04h3.04V9.16Z"/><path d="M21.34 33.54H18.3v3.04h3.04v-3.04ZM21.34 3.06h-6.1V6.1h6.1V3.06ZM18.3 36.58h-3.06v3.04h3.06v-3.04ZM18.3 24.38h-3.06v6.1h3.06v-6.1ZM15.24 30.48H12.2v6.1h3.04v-6.1ZM15.24 21.34H12.2v3.04h3.04v-3.04Z"/><path d="M21.34 18.3v-6.1H18.3v3.04H9.14v6.1h3.06V18.3h9.14ZM15.24 6.1h-6.1v3.06h6.1V6.1ZM6.1 48.78v-3.06H3.06v3.06H0v3.04h15.24v-3.04H6.1ZM9.14 39.62H6.1v6.1h3.04v-6.1ZM9.14 9.16H6.1v3.04h3.04V9.16ZM6.1 36.58H3.06v3.04H6.1v-3.04ZM6.1 12.2H3.06v3.04H6.1V12.2ZM3.06 15.24H0v21.34h3.06V15.24Z"/></g><defs><clipPath id="a"><path fill="#fff" d="M0 0h64v64H0z"/></clipPath></defs></svg>
