<svg xmlns="http://www.w3.org/2000/svg" fill="none" viewBox="0 0 162 162"><path fill="#3316e9" d="M57.864 84.847v7.746h30.831v-7.746h7.746v7.746h30.83v-7.746h7.746v54.017h7.695V54.017h-7.695v-7.695h-7.746v-7.746h-7.695v-7.695H96.441v-15.44h-7.746v15.44H65.56v7.695h-7.696v7.746H50.12v7.695h-7.695v84.847h7.695V84.847h7.745ZM81 46.322h7.695v-7.746h7.746v7.746h7.695v15.39h-7.695v7.745h-7.746v-7.745H81v-15.39ZM135.017 138.864h-7.746v7.746h7.746v-7.746Z"/><path fill="#3316e9" d="M127.271 115.729h-7.695v15.44h7.695v-15.44ZM127.271 146.61h-15.44v7.695h15.44v-7.695ZM119.576 131.169h-7.745v7.695h7.745v-7.695ZM111.83 138.864H96.44v7.746h15.39v-7.746ZM111.831 154.305H73.254V162h38.577v-7.695ZM88.695 7.746h-15.44v7.695h15.44V7.746ZM73.254 146.61h-15.39v7.695h15.39v-7.695ZM73.254 15.44h-15.39v7.695h15.39V15.44ZM57.864 138.864H50.12v7.746h7.745v-7.746ZM57.864 23.136H50.12v7.745h7.745v-7.745ZM50.118 30.881H26.983v7.695h23.135v-7.695ZM42.423 0h-7.695v7.746h7.695V0ZM34.728 7.746h-7.745v7.695h7.745V7.746ZM26.983 15.44h-7.695v15.441h7.695v-15.44Z"/></svg>