<svg xmlns="http://www.w3.org/2000/svg" viewBox="0 0 24 24" fill="currentColor"><style>@media (prefers-color-scheme:light){:root{color:#fff}}@media (prefers-color-scheme:dark){:root{color:#222}}</style><g clip-path="url(#a)"><path fill="#fff" d="M19.5 23.438H6.187V21h.188v-1.567h-.563v-1.147H4.5v-2.292h-.75V11.43h1.395V9.563h1.793V6.187h2.717v1.816h8.158v1.14h1.5v1.14h1.312v8.001H19.5v5.154Z"/><path fill="#3316e9" d="M21.142 10.283h-1.14v8.002h1.14v-8.002ZM18.855 20.573H7.432v-1.14H6.285v1.14h-1.14V24h15.997v-3.427h-1.14v-2.288h-1.147v2.288Zm0 2.287h-2.28v-1.147h2.28v1.147ZM20.002 9.143h-1.147v1.14h1.147v-1.14ZM17.715 10.283h-1.14v3.434h1.14v-3.434ZM18.855 8.003h-2.28v1.14h2.28v-1.14ZM9.658 5.64h-3.38v1.14h3.38V5.64ZM14.287 10.283h-1.14v3.434h1.14v-3.434ZM10.86 10.283H9.713v3.434h1.147v-3.434ZM9.563 8.002h7.012V6.855H9.563v1.147Z"/><path fill="#3316e9" d="M6.285 14.858h1.147V6.765H6.285v2.378h-1.14v1.14h1.14v4.575ZM6.285 18.285h-1.14v1.148h1.14v-1.148ZM5.145 15.998h-1.14v2.287h1.14v-2.287ZM5.145 10.283h-1.14v1.147h1.14v-1.147ZM4.005 11.43H2.857v4.568h1.148V11.43Z"/></g><defs><clipPath id="a"><path fill="#fff" d="M0 0h24v24H0z"/></clipPath></defs></svg>
