<svg xmlns="http://www.w3.org/2000/svg" fill="none" viewBox="0 0 162 162"><path fill="#3316e9" d="M142.712 23.136h-7.695v100.288h7.695V23.136ZM127.271 138.864H50.169v-7.695h-7.745v7.695h-7.696V162h107.984v-23.136h-7.695v-15.44h-7.746v15.44Zm0 15.441h-15.39v-7.746h15.39v7.746ZM135.017 15.44h-15.441v7.695h15.441V15.44ZM111.881 92.593h-15.44v7.695h15.44v-7.695ZM81 100.288H57.864v7.695H81v-7.695Z"/><path fill="#3316e9" d="M65.56 69.407h-7.696v7.745h15.44V54.017h15.442v23.135H73.305v7.695H81v15.441h7.746v-7.695h7.695V54.017h15.44v38.576h7.695V23.135h-7.695v23.136H73.305V7.695h-7.746v61.712ZM65.56 0H50.17v7.695h15.39V0ZM57.864 92.593H50.17v7.695h7.695v-7.695Z"/><path fill="#3316e9" d="M57.864 69.407v-7.695H50.17V7.695h-7.745v54.017h-7.696v7.695h23.136ZM42.423 123.424h-7.695v7.745h7.695v-7.745ZM34.729 107.983h-7.695v15.441h7.695v-15.441ZM34.729 69.407h-7.695v7.745h7.695v-7.745ZM27.034 77.152h-7.746v30.831h7.746v-30.83Z"/></svg>