<svg xmlns="http://www.w3.org/2000/svg" fill="none" viewBox="0 0 206 206"><g fill="#3316e9" clip-path="url(#a)"><path d="m145.224 146.049-7.324-2.522-12.559 36.475 7.323 2.522 12.56-36.475Z"/><path d="m125.341 180.002-7.276-2.505-2.522 7.323 7.276 2.505 2.522-7.323ZM140.405 136.251l-7.276-2.505-2.505 7.276 7.276 2.505 2.505-7.276Z"/><path d="m115.543 184.82-7.275-2.505-2.506 7.276 7.276 2.505 2.505-7.276ZM135.635 126.471l-7.276-2.506-2.505 7.276 7.275 2.505 2.506-7.275ZM128.359 123.965l2.521-7.324-29.198-10.054 10.037-29.15-7.276-2.506-12.559 36.475 36.475 12.559ZM153.477 51.016l-7.323-2.522-2.505 7.276 7.323 2.522 2.505-7.276ZM118.53 128.719l-7.276-2.505-7.532 21.875 7.276 2.505 7.532-21.875ZM143.648 55.77l-7.275-2.505-2.522 7.323 7.276 2.505 2.521-7.323ZM133.851 60.588l-7.276-2.505-2.505 7.276 7.276 2.505 2.505-7.276ZM96.655 121.187l-7.276-2.505-7.532 21.875 7.275 2.505 7.533-21.875ZM106.965 67.608l-14.6-5.027-2.521 7.323 14.599 5.027 2.522-7.323ZM122.03 23.857l-7.324-2.522-7.532 21.876 7.323 2.521 7.533-21.875ZM59.715 157.405 52.44 154.9l-5.026 14.599 7.275 2.506 5.027-14.6ZM62.477 125.749l7.276 2.505 20.09-58.35-7.275-2.505-12.56 36.475-14.598-5.027-2.506 7.275 14.6 5.027-5.027 14.6ZM54.945 147.624l-7.324-2.521-2.505 7.275 7.324 2.522 2.505-7.276ZM90.1 45.524l-7.323-2.522-2.505 7.276 7.323 2.522 2.505-7.276ZM50.126 137.827l-7.275-2.506-2.506 7.276 7.276 2.505 2.505-7.275ZM85.299 35.679l-7.276-2.506-2.522 7.324 7.276 2.505 2.522-7.323Z"/><path d="m52.905 106.122-7.276-2.505-10.054 29.199 7.276 2.505 10.054-29.199ZM80.528 25.898l-7.276-2.505-2.505 7.275 7.276 2.506 2.505-7.276Z"/></g><defs><clipPath id="a"><path fill="#fff" d="m52.742 0 153.174 52.742-52.742 153.174L0 153.174z"/></clipPath></defs></svg>