<svg xmlns="http://www.w3.org/2000/svg" fill="none" viewBox="0 0 162 162"><path fill="#3316e9" d="M162 81.025h-7.746v30.831H162v-30.83Z"/><path fill="#3316e9" d="M154.255 111.856h-7.695v7.746h7.695v-7.746ZM154.255 73.28h-7.695v7.745h7.695V73.28ZM146.559 119.602h-7.695v7.695h7.695v-7.695ZM146.559 65.585h-7.695v7.695h7.695v-7.695ZM138.864 127.296H15.44v7.695h123.424v-7.695ZM138.864 57.89h-15.44v7.695h15.44V57.89ZM123.424 50.144h-7.746v7.746h7.746v-7.746ZM115.678 88.72h-7.695v7.695h7.695V88.72ZM115.678 73.28h-7.695v7.745h7.695V73.28ZM115.678 42.449h-7.695v7.695h7.695v-7.695ZM107.983 81.025h-7.695v7.695h7.695v-7.695ZM100.288 88.72h-7.745v7.695h7.745V88.72ZM100.288 73.28h-7.745v7.745h7.745V73.28ZM107.983 34.703h-15.44v7.746h15.44v-7.746ZM69.407 111.856h15.44v7.745h15.441v-15.44H69.407v7.695ZM92.542 27.008H69.407v7.695h23.135v-7.695ZM69.407 88.72h-7.695v7.695h7.695V88.72ZM69.407 73.28h-7.695v7.745h7.695V73.28ZM69.407 34.703h-15.44v7.746h15.44v-7.746ZM61.712 81.025h-7.746v7.695h7.746v-7.695ZM53.967 88.72h-7.695v7.695h7.695V88.72ZM53.967 73.28h-7.695v7.745h7.695V73.28ZM53.967 42.449h-7.695v7.695h7.695v-7.695ZM46.271 50.144h-7.695v15.44h7.695v-15.44ZM38.576 65.585H15.44v7.695h23.136v-7.695Z"/><path fill="#3316e9" d="M15.44 119.602H7.695v7.695h7.745v-7.695ZM15.44 73.28H7.695v7.745h7.745V73.28ZM7.695 81.025H0v38.577h7.695V81.025Z"/></svg>