<svg xmlns="http://www.w3.org/2000/svg" fill="none" viewBox="0 0 48 48"><path fill="#3316e9" d="M48 12h-2.41v2.394H48V12ZM45.59 14.394h-2.393v2.409h2.393v-2.41ZM45.59 9.606h-2.393V12h2.393V9.606ZM43.197 12h-2.394v2.394h2.394V12ZM40.803 43.197v-2.41h2.394v-2.393h-2.394V36h-2.41v2.394H36v2.393h2.394v2.41h2.41ZM40.803 19.197h-2.41V24h2.41v-4.803ZM38.394 24H36v2.394h2.394V24ZM38.394 4.803H36v2.394h2.394V4.803ZM36 26.394h-2.41v2.409H36v-2.41ZM36 7.197h-2.41v2.41H36v-2.41ZM33.59 28.803h-2.393v2.394h2.393v-2.394ZM33.59 9.606h-2.393V12h2.393V9.606ZM31.197 31.197h-2.394v2.394h2.394v-2.394ZM31.197 12h-2.394v2.394h2.394V12ZM28.803 45.59h-2.409V48h2.41v-2.41Z"/><path fill="#3316e9" d="M28.803 33.59h-2.409V36h2.41v-2.41ZM26.394 14.394v2.409H24v2.394h14.394v-2.394h-9.59v-2.41h-2.41ZM26.394 36H24v2.394h2.394V36ZM38.394 2.394v2.41h2.41V0H21.605v2.394h16.788ZM24 38.394h-2.394v2.394H24v-2.394ZM21.606 40.788h-2.41v2.409h2.41v-2.41Z"/><path fill="#3316e9" d="M21.606 2.394h-2.41v2.41h2.41v-2.41ZM19.197 43.197h-2.394v2.393h2.394v-2.393ZM19.197 24H4.803v2.394h12v4.803h2.394V24Z"/><path fill="#3316e9" d="M19.197 4.803h-2.394v2.394h2.394V4.803ZM16.803 45.59h-2.41V48h2.41v-2.41ZM16.803 31.197h-2.41v7.197h2.41v-7.197Z"/><path fill="#3316e9" d="M16.803 7.197h-2.41v2.41h2.41v-2.41ZM14.394 38.394H12v7.197h2.394v-7.197Z"/><path fill="#3316e9" d="M14.394 9.606H12V12h2.394V9.606ZM12 12H9.606v2.394H12V12ZM9.606 14.394h-2.41v2.409h2.41v-2.41ZM7.197 33.59H4.803V36h2.394v-2.41ZM7.197 16.803H4.803v2.394h2.394v-2.394ZM4.803 0v2.394H2.409v2.41h2.394v2.393h2.394V4.803h2.409v-2.41h-2.41V0H4.804ZM4.803 36H2.409v2.394h2.394V36ZM4.803 31.197H2.409v2.394h2.394v-2.394ZM4.803 19.197H2.409V24h2.394v-4.803Z"/><path fill="#3316e9" d="M2.41 33.59H0V36h2.41v-2.41Z"/></svg>