<svg xmlns="http://www.w3.org/2000/svg" viewBox="0 0 24 24" fill="none"><path fill="#fff" d="M19.688 23.25h-13.5V21h.562v-1.566h-.938v-1.149H4.688v-2.29H3.375v-4.182h.63v-.938h1.142V9.75h1.79V1.141h3.375v6.172h5.813v.692h2.063v1.141H19.5v1.137H20.813v7.998h-1.125v4.97Z"/><path fill="#3316E9" d="M21.142 10.283h-1.14v8.002h1.14v-8.002ZM18.855 20.572H7.432v-1.14H6.285v1.14h-1.14V24h15.997v-3.428h-1.14v-2.287h-1.147v2.287Zm0 2.288h-2.28v-1.148h2.28v1.148ZM20.002 9.143h-1.147v1.14h1.147v-1.14ZM17.715 10.283h-1.14v3.434h1.14v-3.434ZM18.855 8.002h-2.28v1.14h2.28v-1.14ZM14.287 10.283h-1.14v3.434h1.14v-3.434ZM10.86 10.283H9.713v3.434h1.147v-3.434ZM9.713 8.002h6.862V6.855H10.86V1.14H9.713v6.862ZM9.713 0h-2.28v1.14h2.28V0ZM6.285 14.857h1.147V1.14H6.285v8.002h-1.14v1.14h1.14v4.575ZM6.285 18.285h-1.14v1.147h1.14v-1.147ZM5.145 15.998h-1.14v2.287h1.14v-2.287ZM5.145 10.283h-1.14v1.147h1.14v-1.147ZM4.005 11.43H2.857v4.567h1.148V11.43Z"/></svg>
