<svg xmlns="http://www.w3.org/2000/svg" fill="none" viewBox="0 0 67 67"><path fill="#3316e9" d="M63.594 47.574h-9.51V44.39h3.163v-3.164H9.695v3.163h3.173v3.184h-9.52v19.021h60.246v-19.02ZM16.021 44.39H50.9v3.184H16.02V44.39Zm44.41 19.041H6.511V50.737h53.92V63.43Z"/><path fill="#3316e9" d="M60.43 3.167h-3.185V41.23h3.184V3.166ZM54.08 53.9H38.223v3.183H54.08V53.9ZM41.387 22.206h-3.163v3.163h3.163v-3.163ZM41.386 15.855h-3.163v3.164h3.163v-3.163ZM38.226 25.371h-9.51v3.163h9.51v-3.163ZM28.715 22.206h-3.184v3.163h3.184v-3.163ZM28.715 15.863H25.53v3.163h3.184v-3.163Z"/><path fill="#3316e9" d="M12.868 38.062h41.225V6.347H12.868v31.715ZM16.02 9.51H50.9v25.368H16.02V9.51ZM19.206 53.9h-6.348v6.346h6.348V53.9ZM57.248.002H9.696v3.163h47.552V.002ZM9.695 3.167H6.51V41.23h3.184V3.166Z"/></svg>