<svg xmlns="http://www.w3.org/2000/svg" fill="none" viewBox="0 0 64 64"><g fill="#3316E9" clip-path="url(#a)"><path d="M64 9.14h-3.04V57.9H64V9.14ZM60.96 57.9H57.9v3.06h3.06V57.9ZM60.96 6.1H57.9v3.04h3.06V6.1ZM57.9 60.96H6.1V64h51.8v-3.04ZM51.82 48.76H12.2v3.06h39.62v-3.06ZM51.82 36.58H12.2v3.04h39.62v-3.04ZM51.82 24.38H36.58v3.04h15.24v-3.04ZM51.82 15.24H36.58v3.04h15.24v-3.04Z"/><path d="M15.24 6.1v21.32h3.04v-3.04h3.06v-3.04h3.04v3.04h3.04v3.04h3.06V6.1H57.9V3.04H27.42V0H9.14v3.04h-6.1V6.1h12.2Zm6.1-3.06h3.04V6.1h3.04v6.1h-3.04V6.1h-3.04V3.04ZM6.1 57.9H3.04v3.06H6.1V57.9ZM3.04 6.1H0v51.8h3.04V6.1Z"/></g><defs><clipPath id="a"><path fill="#fff" d="M0 0h64v64H0z"/></clipPath></defs></svg>