<svg xmlns="http://www.w3.org/2000/svg" xml:space="preserve" id="Слой_1" x="0" y="0" style="enable-background:new 0 0 1000 1000" version="1.1" viewBox="0 0 1000 1000"><style>.st0{fill-rule:evenodd;clip-rule:evenodd;fill:url(#Oval_00000067931484424663287240000009606320008471064973_)}</style><g id="Artboard"><linearGradient id="Oval_00000128447195411786494030000018194367249533001884_" x1="1.027" x2="1.027" y1="1000.583" y2="999.59" gradientTransform="matrix(1000 0 0 -1000 -526.945 1000583)" gradientUnits="userSpaceOnUse"><stop offset="0" style="stop-color:#2aabee"/><stop offset="1" style="stop-color:#229ed9"/></linearGradient><circle id="Oval" cx="500" cy="500" r="500" style="fill-rule:evenodd;clip-rule:evenodd;fill:url(#Oval_00000128447195411786494030000018194367249533001884_)"/><path id="Path-3" d="M226.3 494.7c145.8-63.5 243-105.4 291.6-125.6 138.9-57.8 167.7-67.8 186.5-68.1 4.1-.1 13.4 1 19.4 5.8 5.1 4.1 6.5 9.6 7.1 13.5s1.5 12.8.8 19.7c-7.5 79.1-40.1 270.9-56.6 359.5-7 37.5-20.8 50-34.2 51.3-29 2.7-51.1-19.2-79.2-37.6-44-28.8-68.9-46.8-111.6-75-49.4-32.5-17.4-50.4 10.8-79.6 7.4-7.6 135.3-124 137.8-134.6.3-1.3.6-6.2-2.3-8.8s-7.2-1.7-10.4-1c-4.4 1-74.7 47.5-210.9 139.4-20 13.7-38 20.4-54.2 20-17.9-.4-52.2-10.1-77.7-18.4-31.3-10.2-56.2-15.6-54-32.8 1.1-9.1 13.5-18.3 37.1-27.7z" style="fill-rule:evenodd;clip-rule:evenodd;fill:#fff"/></g></svg>